<svg xmlns="http://www.w3.org/2000/svg" viewBox="0 -0.5 36 36" shape-rendering="crispEdges"><path stroke="#000" d="M15 0h6m-9 1h12M10 2h5m6 0h5M8 3h4m12 0h4M7 4h3m16 0h3M6 5h2m20 0h2M5 6h2m22 0h2M4 7h2m24 0h2M3 8h2m13 0h3m10 0h2M3 9h2m12 0h5m9 0h2M2 10h2m12 0h6m10 0h2M2 11h2m12 0h7m9 0h2M1 12h2m13 0h7m10 0h2M1 13h2m13 0h7m10 0h2M1 14h2m13 0h7m10 0h2M0 15h2m13 0h8m11 0h2M0 16h2m8 0h12m12 0h2M0 17h2m7 0h13m12 0h2M0 18h2m6 0h13m13 0h2M0 19h2m6 0h14m12 0h2M0 20h2m6 0h15m11 0h2M1 21h2m6 0h16m8 0h2M1 22h2m7 0h7m2 0h8m6 0h2M1 23h2m17 0h9m4 0h2M2 24h2m18 0h12M2 25h2m20 0h10M3 26h2m21 0h7M3 27h2m23 0h5M4 28h2m24 0h2M5 29h2m22 0h2M6 30h2m20 0h2M7 31h3m16 0h3M8 32h4m12 0h4m-18 1h5m6 0h5m-14 1h12m-9 1h6"/><path stroke="#fdc2b8" d="M15 2h3m-5 1h4m-5 1h3m-2 1h1m-1 1h1m-1 1h1M4 12h1m-2 1h2m3 0h1m-6 1h4m-5 1h2m-2 1h1m-1 1h1m-1 1h1"/><path stroke="#fda798" d="M18 2h3m-4 1h6m-8 1h7m-8 1h8m-8 1h7m-7 1h7m-8 1h5m3 0h1M12 9h5m-6 1h5m-6 1h6m-6 1h6m-7 1h7m-9 1h9M4 15h11M3 16h7m-7 1h6m-6 1h5m-6 1h6m-6 1h2"/><path stroke="#feeae6" d="M12 3h1m-3 1h2M8 5h5M7 6h6M6 7h7M5 8h7M5 9h7m-8 1h7m-7 1h5m-6 1h1m1 0h3m-3 1h1m1 0h1"/><path stroke="#d67564" d="M23 3h1m0 1h1m-1 1h1m-1 1h2m-2 1h3m-3 1h3m-3 1h3m-3 1h4m-4 1h4m-4 1h4m-4 1h4m-4 1h4m-4 1h4m-4 1h3m-4 1h4m-4 1h4m-4 1h3m-1 1h1M3 23h2m5 0h4m5 0h1M4 24h16M7 25h13m-9 1h6"/><path stroke="#fc8a75" d="M22 4h2m-2 1h2m-3 1h3m-3 1h3m-2 1h2m-1 1h1m-1 1h1M4 20h3m-4 1h5m-5 1h6m-4 1h5"/><path stroke="#ac5e50" d="M25 4h1m-1 1h1m0 1h1m0 2h1m-1 1h1m-6 1h1m0 1h1m-1 1h1m-1 1h1m6 0h2m-2 1h2m-3 1h3m-4 1h5m-6 1h6m-6 1h6m-7 1h7m-7 1h6M8 21h1m18 0h5M9 22h1m19 0h2M6 25h1m13 0h2M8 26h3m6 0h7m-7 1h9m-11 1h13m-17 1h17m-15 1h13m-10 1h8"/><path stroke="#80463c" d="M26 5h2m-1 1h2m-2 1h3m-2 1h3m-3 1h3m-3 1h4m-4 1h4m-4 1h5m-5 1h2m2 0h1m-5 1h2m2 0h1m-5 1h1m3 0h2m-7 1h1m5 0h1m-1 1h1m-1 1h1m-1 1h1m-2 1h2m-9 1h2m5 0h1m-6 1h2m2 0h2m-4 1h4M4 25h2m16 0h2M5 26h3m16 0h2M5 27h12m9 0h2M6 28h9m13 0h2M7 29h4m17 0h1M8 30h5m13 0h2m-18 1h6m8 0h2m-14 1h12m-9 1h6"/><path stroke="#fee0db" d="M12 8h1m-4 4h1"/><path stroke="#ca6e5e" d="M22 9h1"/><path stroke="#fee3de" d="M9 11h1m-2 1h1m-3 1h1"/><path stroke="#e0988b" d="M23 14h1m-1 1h1m-1 1h1m-2 2h1m-1 1h1M7 20h1m6 3h1m2 0h2"/><path stroke="#eab8af" d="M22 16h1m-1 1h1m-2 1h1m-5 4h2m-4 1h2"/><path stroke="#b98278" d="M23 20h1m-4 4h1"/><path stroke="#a1584b" d="M24 20h1m-4 4h1"/></svg>